<svg width="24" height="24" viewBox="0 0 24 24" fill="none" xmlns="http://www.w3.org/2000/svg">
<circle cx="12" cy="12" r="12" fill="url(#paint0_linear)"/>
<path d="M12 12.9379L19.6875 11.2005C19.2878 7.32601 15.9975 4.3125 12 4.3125C8.0025 4.3125 4.71225 7.32601 4.3125 11.2005L12 12.9379Z" fill="white"/>
<path d="M4.46875 13.6758C4.57638 14.1832 4.7455 14.6752 4.96075 15.1364L12.0179 15.5977L19.075 15.1364C19.2903 14.6752 19.444 14.1832 19.567 13.6758L12.0333 14.26L4.46875 13.6758Z" fill="white"/>
<path d="M8.23438 18.7031C9.35675 19.3181 10.6329 19.6871 12.0013 19.6871C13.3696 19.6871 14.6611 19.3335 15.7681 18.7031H8.23438Z" fill="white"/>
<path d="M11.9996 16.7055L5.72656 16.4902C6.04944 16.9515 6.43381 17.3666 6.84894 17.7356H17.1502C17.5653 17.3666 17.9497 16.9515 18.2726 16.4902L11.9996 16.7055Z" fill="white"/>
<defs>
<linearGradient id="paint0_linear" x1="12" y1="24.5906" x2="12" y2="2.34905e-07" gradientUnits="userSpaceOnUse">
<stop stop-color="#A32CCD"/>
<stop offset="1" stop-color="#FE453D"/>
</linearGradient>
</defs>
</svg>
