<svg width="26" height="26" viewBox="0 0 26 26" fill="none" xmlns="http://www.w3.org/2000/svg">
<path fill-rule="evenodd" clip-rule="evenodd" d="M13 0C20.1786 0 26 5.8214 26 13C26 20.1786 20.1786 26 13 26C5.8214 26 0 20.1786 0 13C0 5.8214 5.8214 0 13 0Z" fill="url(#paint0_linear)"/>
<path d="M11.6239 11.1603C12.1166 12.0318 11.0145 12.302 10.4972 12.3517C9.71351 12.4282 9.55125 11.9744 9.70433 11.4044C9.75462 11.2003 9.8661 11.0167 10.0237 10.8785C10.1814 10.7402 10.3776 10.654 10.5856 10.6315C10.7906 10.6127 10.9969 10.6523 11.1805 10.7458C11.3641 10.8394 11.5178 10.983 11.6239 11.1603Z" fill="#D800A8"/>
<path d="M14.7022 9.54883C14.1294 13.9501 21.8515 13.0342 21.7045 16.5371C22.4662 15.5424 22.7938 12.8399 20.5513 11.4488C18.5534 10.2084 15.9499 10.8871 14.7022 9.54883Z" fill="#D800A8"/>
<path d="M19.1484 7.88849C19.0981 7.84182 19.0463 7.79591 18.9961 7.75C19.0471 7.79667 19.0981 7.84565 19.1484 7.88849Z" fill="#D800A8"/>
<path d="M20.9434 11.0961L20.9389 11.0892C20.8692 10.9591 20.7897 10.8346 20.7012 10.7166C20.4409 10.3623 20.0675 10.1083 19.6433 9.99728C19.3608 9.92407 19.0721 9.87849 18.7809 9.8611C18.4862 9.83965 18.1853 9.82739 17.8814 9.81138C17.272 9.77766 16.6482 9.71494 16.0388 9.54049C15.8865 9.49686 15.7342 9.44941 15.5872 9.39205C15.511 9.3645 15.4402 9.33469 15.3648 9.30251C15.2894 9.27042 15.2124 9.23361 15.1362 9.19461C14.8497 9.03699 14.5843 8.84337 14.3464 8.61847C13.8772 8.18004 13.5086 7.68265 13.1391 7.20059C12.7909 6.71668 12.417 6.25182 12.0194 5.80798C11.627 5.37319 11.1633 5.00929 10.6484 4.73216C10.1151 4.46238 9.53599 4.29623 8.94141 4.24245C9.55826 4.17516 10.1823 4.25162 10.7649 4.46588C11.3528 4.69516 11.8903 5.03806 12.3469 5.47514C12.645 5.75599 12.9249 6.05579 13.1848 6.37268C15.1195 5.99009 16.6886 6.32983 17.8943 6.9894L17.9218 7.00318C18.3056 7.21228 18.6652 7.46325 18.9942 7.75151C19.0468 7.79743 19.0986 7.84333 19.1466 7.89001C19.4034 8.12707 19.6424 8.38284 19.8618 8.65519L19.8786 8.67737C20.5908 9.58331 20.9427 10.5252 20.9434 11.0961Z" fill="#D800A8"/>
<path d="M20.942 11.0971L20.9375 11.0879L20.942 11.0971Z" fill="#D800A8"/>
<path d="M9.03988 4.81055C9.53347 4.88248 10.037 5.07989 10.3614 5.45635C10.6859 5.83282 10.8055 6.32253 10.8992 6.78851C10.9753 7.14968 11.0355 7.51772 11.1772 7.85975C11.2457 8.02656 11.3463 8.1727 11.4301 8.33033C11.4994 8.46114 11.6258 8.57904 11.6746 8.71903C11.6833 8.73918 11.6866 8.7612 11.684 8.78297C11.6815 8.80475 11.6733 8.82547 11.6601 8.84302C11.488 9.03428 11.0234 8.82157 10.8482 8.73585C10.5453 8.58505 10.2741 8.37729 10.0492 8.12374C9.34611 7.33944 8.98276 6.21081 9.00486 5.18318C9.00973 5.05842 9.02143 4.93402 9.03988 4.81055Z" fill="#D800A8"/>
<path d="M17.296 13.6543C16.2296 16.6438 21.0664 18.6494 19.2543 21.6886C21.1136 20.9173 21.9964 18.5874 21.2249 16.7387C20.55 15.1158 18.5543 14.5243 17.296 13.6543Z" fill="#D800A8"/>
<path d="M10.8984 17.5644C11.189 17.3444 11.5068 17.163 11.8437 17.025C12.1845 16.8879 12.5382 16.7854 12.8994 16.7189C13.6162 16.5819 14.3253 16.5483 14.921 16.3072C15.2152 16.1918 15.4861 16.0233 15.72 15.8099C15.9464 15.5986 16.1197 15.3363 16.2258 15.0447C16.3343 14.737 16.3784 14.41 16.3552 14.0844C16.3283 13.7346 16.2495 13.3908 16.1213 13.0645C16.3869 13.3418 16.5802 13.6807 16.6842 14.0511C16.7882 14.4215 16.7998 14.8119 16.7178 15.1878C16.6246 15.5857 16.4234 15.9499 16.1366 16.2399C15.8527 16.5208 15.5103 16.7351 15.1342 16.8674C14.7753 16.9938 14.4009 17.0711 14.0214 17.0969C13.6557 17.1275 13.3023 17.1359 12.955 17.1565C12.2528 17.1862 11.5592 17.3237 10.8984 17.5644Z" fill="#D800A8"/>
<path d="M17.7199 22.818C17.6125 22.9037 17.5051 22.9948 17.387 23.0743C17.2683 23.153 17.1437 23.2225 17.0146 23.2825C16.7457 23.4143 16.45 23.4816 16.1508 23.4791C15.3404 23.4638 14.7675 22.8578 14.4325 22.1729C14.2039 21.7062 14.0463 21.2019 13.7751 20.7574C13.3874 20.1215 12.7239 19.6097 11.947 19.7045C11.6302 19.7443 11.3331 19.8874 11.1571 20.1636C10.694 20.8852 11.359 21.896 12.2068 21.7529C12.2789 21.7418 12.3494 21.7223 12.417 21.6947C12.4843 21.6659 12.5471 21.6275 12.6036 21.5807C12.722 21.4817 12.8113 21.3521 12.8618 21.2058C12.9175 21.0533 12.9299 20.8882 12.8976 20.7291C12.8628 20.5627 12.7651 20.4165 12.6249 20.3213C12.7879 20.3979 12.9148 20.535 12.9792 20.7039C13.0458 20.8775 13.0629 21.0665 13.0286 21.2494C12.9953 21.44 12.9117 21.6182 12.7864 21.7652C12.7199 21.8407 12.6429 21.9064 12.5579 21.9602C12.4736 22.0135 12.3833 22.0564 12.289 22.088C12.0977 22.1538 11.8941 22.1749 11.6934 22.15C11.4116 22.1097 11.1459 21.994 10.9241 21.8149C10.6621 21.6067 10.4671 21.3344 10.2301 21.1002C9.95861 20.814 9.63824 20.5789 9.28415 20.4062C9.03999 20.2984 8.78446 20.2189 8.52243 20.169C8.39064 20.1415 8.25739 20.1215 8.12407 20.1047C8.06313 20.0986 7.76455 20.032 7.72266 20.071C8.13463 19.69 8.58378 19.3517 9.06323 19.061C9.55553 18.7675 10.0841 18.5404 10.6354 18.3854C11.2069 18.2238 11.8048 18.1777 12.3942 18.25C12.6975 18.2865 12.9947 18.3638 13.2777 18.4795C13.5742 18.5985 13.848 18.7683 14.0866 18.9814C14.3229 19.205 14.5137 19.4724 14.6488 19.7688C14.7706 20.0463 14.8616 20.3365 14.9199 20.6342C15.0936 21.5241 15.0296 22.9037 16.1897 23.1072C16.2501 23.119 16.3111 23.1277 16.3725 23.1332L16.5621 23.1379C16.6925 23.1285 16.8221 23.1098 16.9498 23.082C17.2145 23.0195 17.4724 22.931 17.7199 22.818Z" fill="#D800A8"/>
<path d="M10.9796 21.8501L10.9492 21.8262L10.9796 21.8501Z" fill="#D800A8"/>
<path d="M9.93942 9.2898C9.89717 9.45287 9.8234 9.60603 9.72232 9.74049C9.53423 9.98579 9.2852 10.177 9.00025 10.2953C8.74399 10.4062 8.47262 10.4778 8.19515 10.508C8.13494 10.5156 8.07252 10.5202 8.01235 10.5248C7.83662 10.5315 7.66765 10.5945 7.53018 10.7047C7.3927 10.8149 7.29395 10.9663 7.24836 11.1369C7.22749 11.2218 7.21197 11.308 7.2019 11.3948C7.17448 11.6197 7.16991 11.8539 7.14553 12.137C7.08585 12.6188 6.94712 13.0873 6.73498 13.5235C6.45925 14.1065 6.15 14.5763 6.2216 15.2482C6.26882 15.6843 6.49124 15.9766 6.78678 16.2781C7.31996 16.826 8.51357 17.0708 8.24698 18.4206C8.08623 19.2263 6.75631 20.0718 4.8871 20.3672C5.07296 20.3388 4.64869 19.6203 4.62203 19.5744C4.42171 19.2592 4.20234 18.9623 4.04315 18.6203C3.73085 17.9569 3.58613 17.1894 3.7141 16.4625C3.84891 15.6973 4.41257 15.1112 4.88102 14.5266C5.43858 13.8311 6.02355 12.9198 6.15304 12.0169C6.18351 11.7981 6.20484 11.5241 6.25359 11.2517C6.30006 10.9499 6.39418 10.6575 6.53237 10.3855C6.6267 10.2071 6.75089 10.0464 6.8995 9.91039C6.97699 9.83816 7.02811 9.74187 7.04469 9.63698C7.06125 9.53209 7.04232 9.42467 6.99091 9.33189L4.01115 3.94815L8.2911 9.25381C8.33985 9.31531 8.40144 9.36528 8.47156 9.40014C8.54168 9.43499 8.61862 9.45401 8.69678 9.45563C8.77503 9.45734 8.85262 9.44174 8.9242 9.40989C8.9957 9.37804 9.0594 9.33075 9.11075 9.27144C9.16495 9.2079 9.19566 9.12754 9.19777 9.04394C9.1998 8.96033 9.17315 8.87851 9.12213 8.81238C8.84263 8.45349 8.54704 8.08772 8.26063 7.72809L7.18362 6.38905L5.02193 3.71554L2.07422 0L5.29919 3.47605L7.60027 6.03171L8.74813 7.31261C9.12895 7.7434 9.50985 8.16043 9.89067 8.61339L9.95315 8.68993L9.96688 8.80847C9.98541 8.96935 9.97615 9.13218 9.93942 9.2898Z" fill="#D800A8"/>
<path d="M10.9258 21.8113C10.719 21.6508 10.535 21.4626 10.3789 21.252C10.5464 21.4525 10.7292 21.6395 10.9258 21.8113Z" fill="#D800A8"/>
<defs>
<linearGradient id="paint0_linear" x1="4.55" y1="1.79832e-07" x2="18.6333" y2="29.6833" gradientUnits="userSpaceOnUse">
<stop stop-color="#FEE3FF"/>
<stop offset="1" stop-color="white"/>
</linearGradient>
</defs>
</svg>
